<svg width="47" height="47" viewBox="0 0 47 47" fill="none" xmlns="http://www.w3.org/2000/svg">
<path d="M13.6036 0C6.10112 0 0 6.11941 0 13.6403V33.3631C0 40.8839 6.10112 47 13.6036 47H33.3963C40.8988 47 47 40.8839 47 33.3631V13.6403C47 6.11941 40.8988 0 33.3963 0H13.6036V0ZM13.6036 4.04047H33.3963C38.736 4.04047 42.9728 8.28761 42.9728 13.6403V33.3631C42.9728 38.7158 38.736 42.9596 33.3963 42.9596H13.6036C8.26399 42.9596 4.03057 38.7158 4.03057 33.3631V13.6403C4.03057 8.28761 8.26399 4.04047 13.6036 4.04047ZM36.1137 8.08088C34.5567 8.08088 33.2953 9.3454 33.2953 10.9061C33.2953 12.4669 34.5567 13.7314 36.1137 13.7314C37.6706 13.7314 38.9321 12.4669 38.9321 10.9061C38.9321 9.3454 37.6706 8.08088 36.1137 8.08088ZM23.5 11.3989C16.8565 11.3989 11.4284 16.8403 11.4284 23.5C11.4284 30.1597 16.8565 35.6011 23.5 35.6011C30.1435 35.6011 35.575 30.1597 35.575 23.5C35.575 16.8403 30.1435 11.3989 23.5 11.3989ZM23.5 15.4394C27.9656 15.4394 31.5443 19.0235 31.5443 23.5C31.5443 27.9765 27.9656 31.5606 23.5 31.5606C19.0344 31.5606 15.459 27.9765 15.459 23.5C15.459 19.0235 19.0344 15.4394 23.5 15.4394Z" fill="#575757"/>
</svg>
